<svg width="228" height="228" viewBox="0 0 228 228" fill="none" xmlns="http://www.w3.org/2000/svg">
<g clip-path="url(#clip0_2041_1832)">
<path d="M228 0H0V228H228V0Z" fill="white"/>
<path d="M228 0H0V228H228V0Z" fill="white"/>
<path fill-rule="evenodd" clip-rule="evenodd" d="M114.784 26.0715L93.9193 42.9756L69.5755 37.8812L61.9755 60.5981L37.5546 69.819L41.8415 94.4062L25.6677 113.412L42.4887 133.392L37.798 157.326L61.4946 166.873L69.5043 190.57L95.0652 186.687L114.071 202.623L133.077 186.527L158.145 190.249L167.449 165.585L190.095 157.819L186.372 132.667L202.469 113.828L186.461 94.8218L190.261 69.7537L167.782 62.2368L158.08 38.0593L133.332 41.7762L114.784 26.0715Z" fill="#FEFEFE"/>
<path fill-rule="evenodd" clip-rule="evenodd" d="M153.971 65.1166C153.971 65.1166 153.888 77.4903 149.928 84.6925C145.962 91.8888 135.535 97.7135 135.535 97.7135C135.535 97.7135 129.265 106.198 126.148 109.072C123.037 111.94 119.112 114.57 119.112 114.57V137.299H107.873L107.95 114.089C107.95 114.089 102.778 109.879 99.7857 107.54C96.7932 105.195 93.3138 97.9985 93.3138 97.9985C93.3138 97.9985 84.4194 92.0135 79.6457 87.3228C74.8778 82.6263 72.9363 65.2413 72.9363 65.2413L88.7063 64.6713L90.4103 57.8788L137.803 58.0035L139.418 64.6297L153.971 65.1166ZM84.8291 170.656L142.251 170.573L143.141 158.282L85.0725 158.044L84.8291 170.656Z" fill="#FEFEFE"/>
<path fill-rule="evenodd" clip-rule="evenodd" d="M201.744 114.689L197.891 119.195L183.902 102.25C183.344 101.573 183.142 100.718 183.279 99.9103L187.025 77.5853L165.822 69.6707C164.997 69.3619 164.392 68.7207 164.107 67.9547L156.198 46.7578L133.867 50.5044C132.935 50.6588 132.032 50.356 131.391 49.7503L114.077 35.4647L96.615 49.875C95.9381 50.4332 95.0831 50.635 94.2756 50.4985L71.9506 46.7578L64.0359 67.9547C63.7272 68.786 63.0859 69.3916 62.32 69.6766L41.1231 77.5853L44.8697 99.9103C45.0241 100.843 44.7212 101.751 44.1216 102.392L30.3941 119.023L26.5703 114.481L38.8787 99.566L38.6412 98.1588L41.8416 94.4063L38.0178 72.5028L59.0306 64.6653L60.3131 61.2275L61.9756 60.5982L68.5425 40.9688C69.1184 40.6185 69.8191 40.4641 70.5375 40.5828L93.9312 44.5135L112.177 29.456C113.234 28.5535 114.819 28.506 115.936 29.4203L134.217 44.5135L157.611 40.5828C158.145 40.4997 158.686 40.565 159.172 40.761L167.794 62.2369L168.275 62.3972L169.118 64.6653L189.869 72.4078L186.473 94.8278L189.477 98.3903L189.276 99.566L201.744 114.689ZM99.7084 57.3503L99.465 77.0035L107.552 70.8522L114.427 77.0807L114.101 57.9322L99.7084 57.3503Z" fill="#B55400"/>
<path fill-rule="evenodd" clip-rule="evenodd" d="M88.9497 137.821L138.771 137.904L139.258 157.474L89.1991 156.744L88.9497 137.821Z" fill="#FF7700"/>
<path d="M204.226 112.076L189.169 93.8303L193.099 70.4425C193.343 68.97 192.446 67.5687 191.051 67.159L169.017 58.9356L160.728 36.7234C160.229 35.3934 158.864 34.6394 157.504 34.8531L134.116 38.7837L115.835 23.6906C114.719 22.7762 113.133 22.8237 112.076 23.7262L93.8304 38.7837L70.4426 34.8531C68.9701 34.6097 67.5689 35.5122 67.1592 36.9015L58.9357 58.9356L36.7235 67.2244C35.3935 67.7172 34.6395 69.0887 34.8532 70.4425L38.7839 93.8422L23.6907 112.124C22.7764 113.234 22.8239 114.819 23.7264 115.876L38.7839 134.122L34.8532 157.516C34.6098 158.982 35.5123 160.384 36.9017 160.799L58.9417 169.023L67.2304 191.229C67.7232 192.565 69.0948 193.319 70.4485 193.099L93.8423 189.169L112.124 204.262C113.24 205.176 114.825 205.135 115.882 204.226L134.128 189.169L157.522 193.099C158.989 193.343 160.39 192.446 160.805 191.051L169.023 169.017L191.235 160.728C192.565 160.235 193.319 158.864 193.105 157.51L189.175 134.116L204.268 115.829C205.176 114.718 205.135 113.133 204.226 112.076ZM183.926 131.29C183.326 131.931 183.024 132.834 183.178 133.766L186.924 156.097L165.728 164.006C164.962 164.291 164.32 164.896 164.012 165.722L156.097 186.924L133.766 183.184C132.964 183.047 132.109 183.249 131.433 183.801L113.976 198.217L96.6626 183.932C96.0214 183.332 95.1189 183.029 94.1867 183.184L71.8557 186.93L63.9529 165.733C63.662 164.962 63.0564 164.32 62.231 164.012L41.0282 156.103L44.7748 133.772C44.9054 132.97 44.7035 132.115 44.1514 131.432L29.7351 113.976L44.0207 96.6625C44.6264 96.0212 44.9292 95.1187 44.7748 94.1865L41.0282 71.8556L62.2251 63.9528C62.991 63.6619 63.6323 63.0562 63.941 62.2309L71.8557 41.0281L94.1807 44.7747C94.9882 44.9053 95.8432 44.7034 96.5201 44.1512L113.976 29.735L131.29 44.0206C131.931 44.6262 132.834 44.929 133.766 44.7747L156.097 41.0281L164.006 62.225C164.291 62.9909 164.896 63.6322 165.722 63.9409L186.924 71.8556L183.184 94.1806C183.047 94.9881 183.249 95.8431 183.801 96.52L198.218 113.982L183.926 131.29ZM154.737 62.219H141.639C141.408 60.6515 141.134 59.0544 140.814 57.4394C140.612 56.0144 139.389 54.9219 137.91 54.9219H114.006C113.994 54.9219 113.988 54.9219 113.976 54.9219H99.9401C99.9282 54.9219 99.9045 54.9219 99.8926 54.9278H90.0423C88.6648 54.9278 87.4357 55.8956 87.1626 57.2969C86.836 58.9653 86.551 60.61 86.3135 62.225H73.2214C71.6064 62.225 70.2882 63.5372 70.2882 65.1581L70.3179 65.544C70.8582 74.3078 72.9957 81.7059 76.7126 87.7503C80.3582 93.67 85.4942 98.23 92.1145 101.43C95.3979 106.964 99.8748 111.726 105.551 115.698V134.36H89.0685C87.4535 134.36 86.1354 135.672 86.1354 137.293V155.064H85.1914C83.5704 155.064 82.2582 156.376 82.2582 157.997V170.103C82.2582 171.718 83.5704 173.037 85.1914 173.037H142.773C144.388 173.037 145.706 171.718 145.706 170.103V157.997C145.706 156.376 144.388 155.064 142.773 155.064H141.829V137.293C141.829 135.672 140.511 134.36 138.896 134.36H122.414V115.698C128.09 111.72 132.561 106.964 135.85 101.43C142.464 98.23 147.6 93.67 151.246 87.7503C154.975 81.7059 157.106 74.3019 157.647 65.5381L157.67 65.1581C157.67 63.5312 156.358 62.219 154.737 62.219ZM102.873 60.7881H111.043V70.769L108.929 68.8453C107.801 67.824 106.091 67.8419 104.987 68.8453L102.873 70.769V60.7881ZM81.6882 84.6747C78.8917 80.1325 77.1223 74.5987 76.4039 68.0853H85.6426C84.9123 76.8906 85.6426 84.7934 87.8335 91.7878C85.3992 89.7512 83.3507 87.3822 81.6882 84.6747ZM139.834 167.164H88.1185V160.924H139.828V167.164H139.834ZM135.957 155.058H92.0017V140.22H135.957V155.058ZM117.871 111.72C117.022 112.278 116.553 113.21 116.553 114.16H116.541V134.354H111.417V114.16C111.417 113.038 110.788 112.064 109.868 111.572C101.852 106.234 96.4192 99.2275 93.581 90.5706C90.8557 82.2403 90.4876 72.3069 92.4826 60.7881H97.0129V77.3953C97.0129 78.1019 97.2682 78.8084 97.7789 79.3665C98.8654 80.56 100.724 80.649 101.917 79.5625L106.964 74.9728L111.892 79.4497C112.421 79.99 113.163 80.3284 113.988 80.3284C115.603 80.3284 116.921 79.0162 116.921 77.3953V60.7881H135.488C137.483 72.3069 137.109 82.2403 134.389 90.5706C131.51 99.3106 126.012 106.358 117.871 111.72ZM146.27 84.6747C144.602 87.3762 142.548 89.7453 140.119 91.7878C142.31 84.7934 143.046 76.8906 142.31 68.0853H151.549C150.83 74.6047 149.067 80.1325 146.27 84.6747Z" fill="#36383E"/>
</g>
<defs>
<clipPath id="clip0_2041_1832">
<rect width="228" height="228" fill="white"/>
</clipPath>
</defs>
</svg>
