<svg width="228" height="228" viewBox="0 0 228 228" fill="none" xmlns="http://www.w3.org/2000/svg">
<g clip-path="url(#clip0_2041_1841)">
<path d="M228 0H0V228H228V0Z" fill="white"/>
<path d="M228 0H0V228H228V0Z" fill="white"/>
<path fill-rule="evenodd" clip-rule="evenodd" d="M92.4172 136.123C92.4172 136.123 92.4113 149.447 93.4682 153.176C94.525 156.904 104.904 164.202 108.799 165.906C112.694 167.604 121.529 165.989 123.72 165.336C125.905 164.688 132.074 160.063 132.958 159.012C133.849 157.955 137.358 150.617 137.358 150.617L137.014 135.981C137.014 135.981 129.948 143.598 119.658 143.034C109.369 142.47 105.717 142.547 102.636 141.093C99.5482 139.632 92.4172 136.123 92.4172 136.123Z" fill="white"/>
<path fill-rule="evenodd" clip-rule="evenodd" d="M151.857 79.42C133.392 80.1207 117.865 75.8635 105.296 66.6485C100.979 72.2891 91.6571 76.6947 77.324 79.8654C79.0993 56.7566 91.3127 44.7866 113.97 43.9435C134.793 45.5288 147.422 57.3504 151.857 79.42ZM137.031 136.907C130.963 142.084 123.108 145.225 114.552 145.225H114.178C110.443 145.225 106.851 144.602 103.496 143.45C101.994 142.933 100.534 142.31 99.1384 141.598C97.0602 140.558 95.1008 139.318 93.278 137.898C92.993 137.673 92.7021 137.441 92.429 137.21C92.4408 138.73 92.4765 141.639 92.6071 144.626L93.0109 144.887C93.6877 145.314 94.3765 145.718 95.083 146.104V146.074C95.8133 146.49 96.5555 146.882 97.3215 147.25C102.451 149.678 108.163 151.056 114.178 151.109C114.303 151.109 114.427 151.109 114.552 151.109C122.924 151.109 130.72 148.538 137.204 144.157L137.031 136.907Z" fill="#36383E"/>
<path fill-rule="evenodd" clip-rule="evenodd" d="M25.4541 196.917L202.867 197.244C202.867 197.244 200.432 174.942 194.026 166.024C187.619 157.106 169.949 149.809 164.51 148.348C159.078 146.888 136.699 147.862 136.699 147.862C136.699 147.862 130.346 161.993 123.643 164.243C116.939 166.487 105.646 165.864 99.4829 161.732C93.3197 157.593 90.4816 147.541 90.4816 147.541L66.7197 147.048C66.7197 147.048 45.315 153.051 36.8838 162.616C28.4525 172.187 26.511 183.053 25.4541 196.917Z" fill="#FEFEFE"/>
<path fill-rule="evenodd" clip-rule="evenodd" d="M119.653 143.034C99.3879 145.469 91.4375 135.25 87.4654 131.361C83.4932 127.466 76.766 109.387 76.766 109.387L76.9025 80.3996C76.9025 80.3996 90.7547 77.5437 95.3325 74.5215C99.9104 71.4934 106.062 67.2006 106.062 67.2006C106.062 67.2006 120.276 75.5725 127.443 77.039C134.609 78.5115 150.468 78.7312 150.468 78.7312C150.468 78.7312 151.923 110.598 150.628 114.974C149.328 119.356 139.923 140.6 119.653 143.034ZM91.9007 151.412C91.7819 151.133 91.675 150.872 91.5682 150.617H72.586C58.3063 150.617 45.321 156.02 35.916 164.718C35.0254 165.543 34.1704 166.398 33.345 167.277C27.8588 175.708 26.3447 185.256 25.4541 196.917L27.0691 196.923C27.5441 186.016 32.5672 176.136 40.4166 168.88C48.6757 161.239 60.0638 156.501 72.5919 156.501H92.7913C92.4944 155.485 92.2688 154.452 92.1144 153.395C92.0135 152.736 91.9422 152.077 91.9007 151.412ZM195.653 168.72C194.441 167.319 193.159 165.983 191.793 164.718C182.418 156.02 169.48 150.617 155.248 150.617H137.358C137.334 151.632 137.239 152.629 137.085 153.615C136.931 154.595 136.717 155.557 136.444 156.501H155.248C167.728 156.501 179.087 161.239 187.31 168.88C195.207 176.213 200.236 186.206 200.628 197.244H202.861C202.861 197.244 200.848 178.76 195.653 168.72ZM87.3763 61.2868C94.2163 54.9931 103.651 51.0862 114.03 51.0862C124.408 51.0862 133.843 54.9931 140.683 61.2868C145.736 65.93 149.37 71.8793 150.925 78.5115C151.887 78.4996 152.849 78.4759 153.817 78.4403C151.923 68.9996 148.527 61.4412 143.628 55.7471C135.791 49.204 125.388 45.2021 114.03 45.2021C105.961 45.2021 98.3725 47.2209 91.8472 50.7359C86.3847 55.1475 82.6738 61.4175 80.7144 69.5518C82.4838 66.5 84.74 63.7153 87.3763 61.2868Z" fill="white"/>
<path fill-rule="evenodd" clip-rule="evenodd" d="M75.3707 88.7953V102.475C75.3707 107.813 71.0422 112.142 65.6985 112.142C60.3607 112.142 56.0322 107.813 56.0322 102.475V88.7953C56.0322 83.4575 60.3607 79.1291 65.6985 79.1291C71.0422 79.1291 75.3707 83.4575 75.3707 88.7953ZM162.248 79.0697C156.91 79.0697 152.582 83.3981 152.582 88.736V102.416C152.582 107.754 156.91 112.082 162.248 112.082C167.592 112.082 171.914 107.754 171.914 102.416V88.736C171.914 83.3981 167.592 79.0697 162.248 79.0697ZM120.027 118.673C116.737 118.673 114.071 121.357 114.071 124.676C114.071 127.989 116.737 130.673 120.027 130.673C123.322 130.673 125.988 127.989 125.988 124.676C125.988 121.357 123.322 118.673 120.027 118.673Z" fill="#FF7700"/>
<mask id="mask0_2041_1841" style="mask-type:luminance" maskUnits="userSpaceOnUse" x="22" y="27" width="184" height="174">
<path d="M22.8 27.6094H205.2V200.64H22.8V27.6094Z" fill="white"/>
</mask>
<g mask="url(#mask0_2041_1841)">
<path d="M191.098 158.84C182.394 150.136 170.383 144.732 157.178 144.732H140.57C140.576 144.513 140.588 144.293 140.588 144.079V136.105C141.313 135.482 142.007 134.829 142.684 134.152C144.733 132.103 146.573 129.829 148.153 127.377C156.465 126.427 162.961 123.524 164.623 115.805C167.259 115.282 169.623 113.982 171.457 112.147C173.868 109.737 175.37 106.4 175.37 102.742V87.9819C175.37 84.3125 173.868 80.9875 171.457 78.5709L171.267 78.3987C169.676 76.8669 167.711 75.7328 165.532 75.1272C165.538 75.0737 165.543 75.0262 165.543 74.9728C165.543 61.9222 159.867 50.0769 150.718 41.4972C141.609 32.9531 129.075 27.6569 115.3 27.6569H112.706C98.9307 27.6569 86.3966 32.9531 77.2944 41.4972C68.1447 50.0769 62.4685 61.9222 62.4685 74.9728C62.4685 75.0262 62.4744 75.0737 62.4744 75.1272C60.2182 75.7506 58.1875 76.95 56.5666 78.5709L56.5547 78.5828C54.1382 80.9994 52.6419 84.3303 52.6419 87.9819V102.742C52.6419 106.305 54.0669 109.559 56.3825 111.963L56.5547 112.147C58.9654 114.558 62.2963 116.06 65.9597 116.06C69.0413 116.06 71.8854 114.997 74.1475 113.228C75.721 121.303 79.711 128.547 85.3219 134.158C86.3729 135.215 87.4832 136.2 88.6469 137.138V144.085C88.6469 144.305 88.6529 144.525 88.6647 144.744H70.8285C57.6175 144.744 45.6119 150.147 36.9075 158.846C28.2032 167.538 22.8 179.55 22.8 192.755V197.398C22.8 199.019 24.1182 200.337 25.7391 200.337H202.261C203.882 200.337 205.2 199.019 205.2 197.398V192.755C205.2 179.55 199.797 167.538 191.098 158.84ZM151.632 120.668C152.6 118.293 153.354 115.793 153.853 113.222C155.206 114.285 156.78 115.087 158.478 115.562C157.362 118.156 154.909 119.736 151.632 120.668ZM167.289 82.7272C168.637 84.075 169.474 85.9334 169.474 87.9759V102.737C169.474 104.779 168.637 106.637 167.289 107.985C165.941 109.333 164.077 110.176 162.034 110.176C159.992 110.176 158.133 109.333 156.786 107.985H156.774C155.432 106.643 154.601 104.785 154.601 102.737V87.9759C154.601 85.9215 155.432 84.069 156.774 82.7272L156.786 82.7153C158.128 81.3734 159.986 80.5362 162.04 80.5362C164.023 80.5362 165.834 81.32 167.158 82.5847L167.289 82.7272ZM81.3082 45.7662C89.3535 38.2197 100.463 33.5409 112.7 33.5409H115.294C127.532 33.5409 138.641 38.2197 146.686 45.7662C154.66 53.2534 159.624 63.555 159.648 74.8778C157.73 75.2281 155.954 75.994 154.417 77.0806C153.502 67.4322 149.18 58.7337 142.672 52.2322C135.316 44.8756 125.163 40.3037 113.994 40.3037C102.826 40.3037 92.6725 44.8756 85.316 52.2322C78.8085 58.7337 74.486 67.4322 73.5775 77.0806C72.0338 75.994 70.2585 75.2281 68.3466 74.8778C68.3763 63.555 73.3341 53.2534 81.3082 45.7662ZM148.449 76.6828C141.52 76.6531 134.864 75.7625 128.493 74.0228C121.196 72.0219 114.232 68.8869 107.611 64.6119C106.477 63.8875 104.939 64.0181 103.948 65.0156C101.021 67.9547 97.2563 70.4009 92.6607 72.3603C88.8725 73.9694 84.5204 75.234 79.616 76.1722C80.6729 68.5069 84.2532 61.6194 89.4841 56.3825C95.7779 50.0887 104.458 46.1819 114.006 46.1819C123.548 46.1819 132.228 50.0887 138.522 56.3825C143.866 61.7322 147.482 68.8156 148.449 76.6828ZM65.9597 110.176C63.9172 110.176 62.0588 109.333 60.711 107.985L60.5744 107.855C59.3097 106.525 58.526 104.72 58.526 102.737V87.9759C58.526 85.9215 59.3632 84.069 60.705 82.7272L60.7169 82.7153C62.0588 81.3734 63.9172 80.5362 65.9716 80.5362C68.02 80.5362 69.8785 81.3734 71.2204 82.7153V82.7272C72.5682 84.075 73.4054 85.9334 73.4054 87.9759V102.737C73.4054 104.779 72.5682 106.637 71.2204 107.985C69.8666 109.333 68.0022 110.176 65.9597 110.176ZM79.2775 105.474V82.2106C85.1735 81.1775 90.4044 79.6931 94.9466 77.7575C99.3997 75.8634 103.206 73.53 106.376 70.7631C112.902 74.7353 119.759 77.704 126.95 79.6694C133.92 81.5753 141.176 82.5372 148.723 82.5372V105.474C148.723 111.352 147.232 116.897 144.632 121.76C140.113 122.063 134.983 121.873 129.93 121.683L128.903 121.647C128.44 120.139 127.633 118.786 126.564 117.687C124.836 115.918 122.443 114.819 119.819 114.819C117.194 114.819 114.802 115.912 113.074 117.687C111.37 119.433 110.313 121.843 110.313 124.492C110.313 127.14 111.37 129.55 113.074 131.296C114.802 133.065 117.194 134.164 119.819 134.164C122.443 134.164 124.836 133.071 126.564 131.296C127.591 130.245 128.375 128.951 128.844 127.514L129.728 127.549C133.356 127.686 137.02 127.822 140.541 127.793C139.893 128.553 139.228 129.295 138.522 130.002C132.228 136.295 123.548 140.202 114.006 140.202C108.211 140.202 102.737 138.753 97.9213 136.218C96.3241 135.351 94.8041 134.354 93.385 133.249C93.195 133.107 92.9872 132.988 92.7794 132.893C91.6216 131.991 90.5232 131.029 89.4841 130.002C83.1904 123.702 79.2775 115.021 79.2775 105.474ZM123.441 124.492C123.441 125.56 123.025 126.522 122.354 127.205C121.707 127.87 120.804 128.28 119.807 128.28C118.815 128.28 117.913 127.87 117.266 127.205C116.595 126.522 116.179 125.56 116.179 124.492C116.179 123.423 116.595 122.461 117.266 121.778C117.913 121.113 118.815 120.703 119.807 120.703C120.804 120.703 121.707 121.113 122.354 121.778C123.025 122.461 123.441 123.423 123.441 124.492ZM97.3691 142.494C98.5625 143.046 99.7857 143.551 101.038 143.978C104.779 145.267 108.775 145.985 112.913 146.062C112.955 146.062 112.997 146.062 113.038 146.068C113.234 146.074 113.424 146.086 113.62 146.086H115.603C119.991 146.086 124.23 145.344 128.185 143.984C130.453 143.207 132.632 142.215 134.698 141.045V144.079C134.698 149.435 132.507 154.298 128.974 157.831C125.448 161.357 120.573 163.554 115.229 163.554H114C108.644 163.554 103.782 161.357 100.249 157.831C96.7219 154.298 94.531 149.429 94.531 144.079V141.075C95.4572 141.58 96.4013 142.055 97.3691 142.494ZM28.6841 192.755C28.6841 181.171 33.4222 170.632 41.0638 162.99C48.6994 155.355 59.2385 150.611 70.8285 150.611H89.5138C90.6835 154.969 92.9872 158.876 96.0925 161.981C100.029 165.917 105.254 168.572 111.061 169.248V194.453H28.6841V192.755ZM199.316 194.453H116.939V169.367C123.239 168.946 128.927 166.202 133.137 161.987C136.242 158.882 138.546 154.969 139.721 150.617H157.172C168.762 150.617 179.295 155.361 186.93 162.996C194.572 170.632 199.316 181.171 199.316 192.761V194.453Z" fill="#36383E"/>
</g>
</g>
<defs>
<clipPath id="clip0_2041_1841">
<rect width="228" height="228" fill="white"/>
</clipPath>
</defs>
</svg>
