<svg width="228" height="228" viewBox="0 0 228 228" fill="none" xmlns="http://www.w3.org/2000/svg">
<g clip-path="url(#clip0_2041_1868)">
<path d="M228 0H0V228H228V0Z" fill="white"/>
<path d="M228 0H0V228H228V0Z" fill="white"/>
<path fill-rule="evenodd" clip-rule="evenodd" d="M113.792 26.1963C113.792 26.1963 102.624 37.1925 85.3101 42.376C67.9964 47.5535 58.8526 49.7385 58.8526 49.7385L58.6151 112.854C58.6151 112.854 58.4548 134.781 69.3798 142.951C80.2989 151.121 88.9557 154.28 97.292 157.029C105.622 159.784 114.036 162.616 114.036 162.616C114.036 162.616 141.633 154.933 150.207 150.403C158.787 145.873 168.898 130.987 170.115 119.166C171.327 107.356 170.525 49.6316 170.525 49.6316C170.525 49.6316 152.517 46.271 145.119 43.6822C137.714 41.0875 122.301 35.2272 113.792 26.1963Z" fill="#FF7700"/>
<path fill-rule="evenodd" clip-rule="evenodd" d="M114.457 43.5635C114.457 43.5635 102.648 53.9957 88.1601 57.1544C73.6785 60.3072 70.9294 61.3582 70.9294 61.3582L70.0388 112.902C70.0388 112.902 70.7632 125.281 78.6957 131.997C86.6223 138.712 114.701 147.529 114.701 147.529C114.701 147.529 149.714 138.943 155.242 123.898C160.764 108.858 157.67 61.4413 157.67 61.4413C157.67 61.4413 146.502 60.3904 135.987 56.0975C125.465 51.8107 119.154 47.2863 114.457 43.5635Z" fill="#FEFEFE"/>
<path fill-rule="evenodd" clip-rule="evenodd" d="M83.8018 153.039C88.3321 154.731 104.393 159.386 104.393 159.386L88.7358 202.154L76.0355 182.406L56.3765 187.097L72.1524 146.241C72.1465 146.241 79.2655 151.335 83.8018 153.039ZM155.503 145.855C155.503 145.855 148.384 150.955 143.854 152.653C139.317 154.351 123.262 159.006 123.262 159.006L138.914 201.768L151.62 182.026L171.279 186.717L155.503 145.855Z" fill="#36383E"/>
<path fill-rule="evenodd" clip-rule="evenodd" d="M170.644 59.755C170.115 59.6897 169.587 59.6956 169.07 59.7965V58.039C153.336 55.765 126.475 46.8231 114.701 35.815C102.921 46.8231 76.0652 55.765 60.3249 58.045V63.2225C59.8499 62.9672 59.3334 62.795 58.8049 62.694L58.8465 52.339C67.6637 51.1456 79.6752 47.7672 90.3984 43.2903C99.9815 39.2943 108.413 34.485 112.337 29.7231C112.985 28.9987 113.703 28.595 114.701 28.595C115.71 28.595 116.399 28.9987 117.064 29.7231C120.982 34.485 129.42 39.2884 139.009 43.2903C149.732 47.7672 161.743 51.1515 170.566 52.339L170.644 59.755ZM133.813 57.2137C126.296 54.1915 119.7 50.5697 116.66 47.0012L116.387 46.7162C116.173 46.5203 115.941 46.3659 115.698 46.2412L115.633 46.2056C115.235 46.0156 114.807 45.9147 114.374 45.9028H114.19C113.762 45.9147 113.335 46.0156 112.931 46.2056L112.866 46.2412C112.622 46.3659 112.391 46.5203 112.183 46.7162L112.088 46.8112L111.91 47.0012C108.876 50.5637 102.273 54.1856 94.7624 57.2137C86.6934 60.4615 77.7159 62.9553 70.8818 63.9647L70.0387 112.902C70.0387 112.902 70.4068 119.261 73.5418 125.329C72.5324 122.194 71.9268 118.607 71.7902 114.475V69.7537C79.1231 68.6672 88.629 66.0368 97.0959 62.6228C103.948 59.8618 110.212 56.5428 114.285 53.0337C118.364 56.5428 124.628 59.8618 131.48 62.6228C139.947 66.0368 149.447 68.6612 156.78 69.7537L156.791 114.338C156.72 116.707 156.489 118.898 156.126 120.929C159.778 106.026 158.329 73.3281 157.819 63.9825C150.961 62.985 141.93 60.4793 133.813 57.2137Z" fill="#FEFEFE"/>
<mask id="mask0_2041_1868" style="mask-type:luminance" maskUnits="userSpaceOnUse" x="50" y="22" width="128" height="184">
<path d="M50.9912 22.8H177.531V205.2H50.9912V22.8Z" fill="white"/>
</mask>
<g mask="url(#mask0_2041_1868)">
<path d="M143.04 73.7082C144.192 74.8244 144.228 76.671 143.106 77.8347L101.87 120.454C100.753 121.612 98.9068 121.642 97.755 120.531L85.5653 108.751C84.4015 107.629 84.3659 105.777 85.4822 104.613C86.6043 103.449 88.4568 103.413 89.6206 104.53L99.7084 114.297L138.914 73.7735C140.03 72.6157 141.877 72.586 143.04 73.7082ZM160.77 108.383C159.944 138.534 139.472 143.83 119.581 148.984C118.216 149.34 116.874 149.684 114.712 150.266C114.237 150.391 113.715 150.403 113.198 150.266C111.037 149.684 109.701 149.334 108.33 148.984C88.5103 143.854 68.0972 138.563 67.1531 108.674L67.1293 108.306V61.1563C67.1412 59.6779 68.2575 58.4013 69.7656 58.2469C76.5403 57.5404 86.3906 54.8447 95.1365 51.1872C102.38 48.1591 108.739 44.5372 111.672 40.9747L111.833 40.7788L111.928 40.6897C112.13 40.4938 112.355 40.3335 112.593 40.2147L112.652 40.1791C113.038 39.9891 113.448 39.8882 113.863 39.8763H114.042C114.457 39.8882 114.873 39.9891 115.259 40.1791L115.318 40.2147C115.55 40.3335 115.775 40.4938 115.977 40.6838L116.232 40.9747C119.166 44.5313 125.525 48.1532 132.768 51.1872C141.425 54.8032 151.169 57.481 157.943 58.2232C159.517 58.2766 160.776 59.571 160.776 61.1563V108.306H160.77V108.383ZM154.927 108.306L154.915 63.7272C147.85 62.6407 138.694 60.0104 130.53 56.5963C123.922 53.8354 117.889 50.5163 113.958 47.0072C110.022 50.5163 103.989 53.8354 97.3809 56.5963C89.2168 60.0104 80.0612 62.6347 72.9956 63.7272L72.9897 108.443C73.7972 133.998 92.055 138.73 109.79 143.319L113.952 144.4L118.109 143.319C135.886 138.718 154.185 133.98 154.927 108.306ZM174.705 191.009C174.105 191.247 173.464 191.271 172.882 191.116L152.825 185.773L141.894 203.401C141.051 204.778 139.24 205.206 137.875 204.351C137.299 203.995 136.883 203.466 136.663 202.873L121.012 163.412C120.994 163.418 120.977 163.418 120.959 163.424C118.774 164 116.589 164.582 114.766 165.086C114.267 165.223 113.721 165.241 113.187 165.092C111.358 164.582 109.167 164 106.97 163.424C106.952 163.418 106.934 163.418 106.911 163.412L91.2593 202.873C91.0456 203.466 90.6359 203.995 90.0481 204.351C88.6765 205.2 86.8775 204.778 86.0284 203.401L75.0915 185.773L55.0287 191.122C54.4468 191.271 53.8115 191.247 53.2118 191.009C51.7097 190.416 50.9793 188.718 51.5731 187.215L67.9487 145.926C60.4497 138.599 55.4681 127.965 54.9693 111.572L54.9456 111.203V49.6732C54.9515 48.1947 56.0618 46.9182 57.57 46.7579C66.31 45.8257 78.9806 42.2869 90.2025 37.4954C99.5659 33.4994 107.813 28.69 111.649 23.9222L111.868 23.6788L111.91 23.6372C112.153 23.3938 112.438 23.2038 112.741 23.0613L112.824 23.0257C113.192 22.8713 113.572 22.8 113.958 22.8C114.338 22.8 114.718 22.8713 115.087 23.0257L115.176 23.0613C115.472 23.1979 115.763 23.3938 116.007 23.6372L116.268 23.9282C120.104 28.69 128.345 33.4994 137.714 37.5013C148.859 42.2572 161.429 45.7782 170.157 46.746C171.724 46.8113 172.971 48.0938 172.971 49.6732V111.209H172.959V111.281C172.514 127.846 167.515 138.563 159.974 145.932L176.344 187.221C176.937 188.718 176.207 190.416 174.705 191.009ZM101.222 161.892C90.9031 159.072 80.7856 155.806 72.6631 149.898L59.1493 183.973L75.6853 179.556C77.0093 179.206 78.369 179.829 78.9984 180.975L87.9343 195.391L101.222 161.892ZM119.462 157.765C142.47 151.679 166.161 145.409 167.105 111.209L167.099 52.2441C158.044 50.9082 146.068 47.4347 135.417 42.8807C126.748 39.1816 118.863 34.7225 113.958 30.026C109.048 34.7166 101.169 39.1816 92.4943 42.8807C81.8425 47.4347 69.8665 50.9082 60.8118 52.2441V111.352C61.8272 145.427 85.4762 151.691 108.448 157.765C110.218 158.234 111.975 158.698 113.958 159.238C115.936 158.698 117.693 158.234 119.462 157.765ZM168.767 183.968L155.254 149.898C147.125 155.806 137.008 159.072 126.688 161.892L139.982 195.391L148.918 180.975C149.548 179.823 150.902 179.206 152.226 179.556L168.767 183.968Z" fill="#36383E"/>
</g>
</g>
<defs>
<clipPath id="clip0_2041_1868">
<rect width="228" height="228" fill="white"/>
</clipPath>
</defs>
</svg>
