<svg width="228" height="228" viewBox="0 0 228 228" fill="none" xmlns="http://www.w3.org/2000/svg">
<g clip-path="url(#clip0_2041_1855)">
<path d="M228 0H0V228H228V0Z" fill="white"/>
<path d="M228 0H0V228H228V0Z" fill="white"/>
<path d="M25.4541 69.5282V156.809L102.695 201.489L178.897 156.809V71.9507L102.351 26.2319L25.4541 69.5282Z" fill="#FEFEFE"/>
<path d="M129.022 98.6219C129.022 99.6551 130.405 116.975 130.405 116.975L152.57 104.506V85.4526L78.7965 39.7397L53.1643 54.2866L129.022 98.6219Z" fill="#FF7700"/>
<path fill-rule="evenodd" clip-rule="evenodd" d="M200.717 99.3166C200.367 118.714 180.969 128.755 180.969 128.755C180.969 128.755 179.586 98.2775 179.586 92.7319C179.586 87.1922 179.241 80.6135 168.156 74.3791C157.071 68.1447 142.868 69.8725 142.868 69.8725C142.868 69.8725 151.181 80.2631 148.408 88.2313C145.647 96.1994 134.906 94.1213 134.906 94.1213C134.906 94.1213 110.663 71.6063 105.812 65.0275C100.967 58.4428 105.812 54.9813 105.812 54.9813C105.812 54.9813 127.639 31.0769 132.834 27.271C138.029 23.465 144.952 26.2319 147.731 32.1219C150.498 38.0119 143.569 47.7078 143.569 47.7078C143.569 47.7078 154.31 49.0913 173.357 53.5978C192.749 58.0985 201.062 80.2631 200.717 99.3166ZM144.038 133.267C124.699 133.267 109.019 149.293 109.019 169.058C109.019 188.824 124.699 204.844 144.038 204.844C163.376 204.844 179.051 188.818 179.051 169.058C179.057 149.293 163.376 133.267 144.038 133.267Z" fill="#FEFEFE"/>
<path d="M170.911 144.543C175.993 150.676 179.057 158.573 179.057 167.188C179.057 170.691 178.546 174.082 177.602 177.276C177.751 176.029 177.822 174.764 177.822 173.482C177.822 170.472 177.412 167.568 176.641 164.801C175.115 159.262 172.128 154.31 168.12 150.349C167.063 149.31 165.935 148.337 164.748 147.446C159.19 143.266 152.231 140.784 144.685 140.784C135.529 140.784 127.246 144.442 121.256 150.361C115.259 156.275 111.548 164.451 111.548 173.488C111.548 177.276 112.195 180.904 113.382 184.27C110.604 179.206 109.018 173.387 109.018 167.188C109.018 160.776 110.711 154.767 113.673 149.583C114.665 148.337 115.728 147.149 116.862 146.027C123.981 138.997 133.819 134.657 144.685 134.657C153.633 134.657 161.886 137.613 168.506 142.589C169.331 143.207 170.139 143.86 170.911 144.543ZM102.351 26.2319L27.8408 68.6851L36.1711 73.1085L109.832 31.1363L102.351 26.2319ZM182.75 57.2019C179.942 55.6226 176.563 53.9719 173.351 53.2357C169.545 52.351 166.072 51.5851 162.949 50.926C158.792 50.4985 154.452 50.6529 150.266 50.6529C150.878 50.0472 151.424 49.4654 151.935 48.7707C148.705 48.1947 146.371 47.8266 145.006 47.6247L141.069 51.5079C139.222 53.3366 140.541 56.4716 143.153 56.4716H157.688C177.691 56.4716 196.092 69.8251 200.23 89.3179C198.603 76.5522 193.01 63.8579 182.75 57.2019ZM113.958 71.6538L111.779 69.5104C108.763 66.4763 108.816 61.5838 111.91 58.621L135.411 35.441C139.311 31.5935 145.944 32.9176 148.051 37.911C148.515 35.8566 148.55 33.7785 147.725 32.0447C146.917 30.3526 145.76 28.9276 144.394 27.841C143.248 27.5382 142.072 27.3897 140.897 27.3897C137.406 27.3897 133.908 28.7079 131.248 31.3382L107.789 54.4944C105.907 56.2994 104.589 58.6388 104.001 61.1622C104.322 62.1657 104.892 63.2819 105.812 64.511C107.112 66.2566 109.802 69.1185 113.044 72.3841C113.311 72.1051 113.62 71.8557 113.958 71.6538Z" fill="#B55400"/>
<mask id="mask0_2041_1855" style="mask-type:luminance" maskUnits="userSpaceOnUse" x="22" y="21" width="183" height="185">
<path d="M22.8 21.9628H204.06V205.2H22.8V21.9628Z" fill="white"/>
</mask>
<g mask="url(#mask0_2041_1855)">
<path d="M55.1002 159.178C54.2927 160.58 52.4995 161.067 51.0924 160.259L35.8092 151.436C34.408 150.628 33.9211 148.835 34.7286 147.428C35.5361 146.027 37.3292 145.546 38.7364 146.347L54.0195 155.171C55.4267 155.978 55.9077 157.777 55.1002 159.178ZM151.798 164.587H147.63V152.475C147.63 150.848 146.312 149.53 144.685 149.53C143.058 149.53 141.74 150.848 141.74 152.475V167.532C141.74 169.159 143.058 170.477 144.685 170.477H151.798C153.425 170.477 154.749 169.159 154.749 167.532C154.749 165.912 153.431 164.587 151.798 164.587ZM203.93 92.9456C203.93 99.3759 202.564 105.533 200.088 111.156V111.162C197.535 116.981 193.782 122.223 189.139 126.599C187.928 127.745 186.64 128.844 185.292 129.871C184.247 130.672 183.148 131.438 182.014 132.175V157.706C182.014 158.454 181.723 159.178 181.201 159.725C181.735 162.242 182.02 164.855 182.02 167.532C182.02 177.84 177.84 187.18 171.083 193.931C164.332 200.693 154.999 204.879 144.685 204.879C135.108 204.879 126.374 201.269 119.765 195.338L104.191 204.333C104.18 204.339 104.174 204.345 104.168 204.345C104.061 204.422 103.954 204.482 103.841 204.541C103.817 204.559 103.788 204.571 103.764 204.582C103.657 204.636 103.544 204.683 103.437 204.719C103.42 204.719 103.402 204.731 103.384 204.737C103.253 204.778 103.129 204.802 102.992 204.826C102.968 204.832 102.933 204.838 102.909 204.838C102.772 204.862 102.63 204.873 102.487 204.873C102.481 204.873 102.475 204.873 102.47 204.873C102.333 204.873 102.202 204.862 102.078 204.838C102.036 204.838 102 204.832 101.965 204.82C101.84 204.802 101.715 204.772 101.591 204.731C101.561 204.719 101.543 204.713 101.514 204.701C101.413 204.666 101.312 204.624 101.217 204.582C101.187 204.565 101.145 204.547 101.116 204.535C101.003 204.482 100.902 204.416 100.801 204.345C100.789 204.345 100.783 204.339 100.765 204.327L24.433 160.253C23.4889 159.707 22.9605 158.721 22.9605 157.706V69.4569C22.8892 68.3822 23.4177 67.3016 24.4152 66.7256L101.003 22.5091C101.888 21.9925 103.016 21.9569 103.96 22.5031L121.618 32.6978L128.215 26.0953C130.88 23.4353 134.372 22.0994 137.869 22.0994C141.36 22.0994 144.851 23.4353 147.517 26.1012C150.183 28.7612 151.519 32.2584 151.519 35.7497C151.519 39.2409 150.183 42.7381 147.517 45.3981L147.238 45.6772H154.666C161.215 45.6772 167.491 46.93 173.239 49.1981C179.218 51.5553 184.615 55.005 189.151 59.2859C193.794 63.6678 197.541 68.9047 200.1 74.7234L200.165 74.8778C202.582 80.4591 203.93 86.5628 203.93 92.9456ZM82.8224 39.7931L103.111 51.5019C103.604 50.8072 104.156 50.1541 104.755 49.5603L117.307 37.0025L102.481 28.4406L82.8224 39.7931ZM151.466 81.8187L151.87 81.5872C151.994 81.4981 152.125 81.4269 152.267 81.3556L163.709 74.7531C163.56 74.6937 163.418 74.6284 163.264 74.5691C160.639 73.5478 157.73 72.9837 154.666 72.9837H147.244L147.523 73.2569C149.904 75.6437 151.216 78.7016 151.466 81.8187ZM137.869 96.5616C137.614 96.5616 137.364 96.5497 137.109 96.5378L132.965 98.9722V111.661L150.593 101.478V89.0981L149.762 89.5791C149.162 90.6419 148.414 91.6453 147.511 92.5537C144.851 95.2256 141.36 96.5616 137.869 96.5616ZM123.441 97.7609L52.933 57.0534L31.7717 69.2728L102.475 110.087L123.441 97.7609ZM129.883 93.9787C129.301 93.5572 128.743 93.0881 128.215 92.5597L104.625 68.9581C103.402 67.7291 102.41 66.2744 101.721 64.6534L101.662 64.4931C101.003 62.8841 100.641 61.1444 100.641 59.3394C100.641 58.5378 100.712 57.7481 100.849 56.9762L76.962 43.1894L58.823 53.6631L129.271 94.3409L129.883 93.9787ZM99.5364 196.84V115.17L99.0139 114.867L28.8327 74.3553L28.8267 156.014L99.5364 196.84ZM176.13 167.538C176.13 158.852 172.609 150.991 166.921 145.302C161.233 139.614 153.366 136.093 144.685 136.093C136.005 136.093 128.137 139.614 122.449 145.302C116.761 150.991 113.24 158.852 113.24 167.538C113.24 176.219 116.755 184.08 122.449 189.768C128.143 195.462 136.005 198.977 144.685 198.977C153.366 198.977 161.233 195.457 166.921 189.768C172.615 184.08 176.13 176.219 176.13 167.538ZM176.148 147.428L176.142 92.8506H176.124C176.124 90.1075 175.643 87.5247 174.681 85.1972C173.737 82.9231 172.336 80.8747 170.478 79.1231C170.145 78.8084 169.801 78.5116 169.445 78.2147L156.483 85.7019V103.176H156.471C156.471 104.191 155.937 105.177 154.999 105.723L131.718 119.166C131.237 119.504 130.649 119.706 130.014 119.706C128.387 119.706 127.063 118.388 127.063 116.761V102.446L105.426 115.164V196.846L115.609 190.968C110.444 184.561 107.338 176.415 107.338 167.538C107.338 157.231 111.518 147.897 118.281 141.14C125.038 134.377 134.372 130.197 144.679 130.197C154.987 130.197 164.326 134.377 171.083 141.14C172.995 143.04 174.687 145.154 176.148 147.428ZM198.034 92.9456C198.034 87.3762 196.87 82.0681 194.768 77.2291L194.703 77.0984C192.464 71.9981 189.175 67.4084 185.108 63.5728C181.112 59.8025 176.356 56.7566 171.089 54.6784C166.013 52.6834 160.461 51.5791 154.648 51.5791H140.113C139.359 51.5791 138.605 51.2881 138.029 50.7122C136.883 49.5603 136.883 47.6959 138.029 46.5441L143.343 41.2359C144.851 39.7219 145.611 37.7387 145.611 35.7556C145.611 33.7725 144.851 31.7834 143.343 30.2694C141.829 28.7553 139.84 28.0012 137.857 28.0012C135.868 28.0012 133.885 28.7553 132.377 30.2694L108.876 53.7522C108.128 54.4766 107.528 55.3434 107.119 56.3053C106.733 57.2137 106.519 58.2409 106.519 59.3334C106.519 60.3725 106.715 61.3581 107.071 62.2369L107.119 62.3497C107.51 63.2641 108.063 64.0894 108.74 64.7841L132.371 88.3975C133.885 89.9116 135.868 90.6716 137.851 90.6716C139.834 90.6716 141.823 89.9116 143.337 88.3975H143.349C144.851 86.8953 145.605 84.9062 145.605 82.9172C145.605 80.9341 144.851 78.945 143.337 77.4309L138.071 72.1644C137.513 71.63 137.162 70.8759 137.162 70.0387C137.162 68.4119 138.486 67.0937 140.113 67.0937H154.648C158.43 67.0937 162.052 67.8062 165.365 69.0947C168.821 70.4425 171.92 72.4078 174.503 74.8481C176.979 77.1816 178.844 79.9187 180.102 82.9469C181.373 86.0106 182.014 89.3594 182.014 92.8566H182.008V124.972C183.083 124.135 184.116 123.257 185.108 122.324C189.175 118.483 192.458 113.893 194.703 108.799C196.852 103.918 198.034 98.5625 198.034 92.9456Z" fill="#36383E"/>
</g>
</g>
<defs>
<clipPath id="clip0_2041_1855">
<rect width="228" height="228" fill="white"/>
</clipPath>
</defs>
</svg>
